<svg width="148" height="49" viewBox="0 0 148 49" fill="none" xmlns="http://www.w3.org/2000/svg">
<path d="M0.239289 26.7057L15.7943 42.2607C7.85086 40.918 1.582 34.6491 0.239289 26.7057Z" fill="#1D2939"/>
<path d="M0 22.4828L20.0172 42.5C21.2077 42.4364 22.3691 42.2633 23.4914 41.9906L0.509432 19.0086C0.236716 20.131 0.0636084 21.2923 0 22.4828Z" fill="#1D2939"/>
<path d="M1.50586 16.0212L26.4789 40.9943C27.3885 40.6039 28.2615 40.1446 29.0913 39.623L2.87713 13.4088C2.3555 14.2386 1.89623 15.1116 1.50586 16.0212Z" fill="#1D2939"/>
<path d="M4.56891 11.1172C8.05582 7.06555 13.2214 4.5 18.9863 4.5C29.4873 4.5 38 13.0127 38 23.5137C38 29.2786 35.4345 34.4442 31.3828 37.9311L4.56891 11.1172Z" fill="#1D2939"/>
<path d="M57.8105 34.8999H71.7423V31.1061H62.4119V13.1363H57.8105V34.8999ZM74.7044 34.8999H79.2315V18.5772H74.7044V34.8999ZM76.9785 16.6431C78.2964 16.6431 79.4334 15.6442 79.4334 14.3477C79.4334 13.0619 78.2964 12.063 76.9785 12.063C75.6715 12.063 74.5345 13.0619 74.5345 14.3477C74.5345 15.6442 75.6715 16.6431 76.9785 16.6431ZM87.3849 25.4633C87.3954 23.3593 88.6494 22.1265 90.4772 22.1265C92.2945 22.1265 93.3891 23.3167 93.3784 25.3146V34.8999H97.9054V24.5069C97.9054 20.7026 95.6738 18.3647 92.2732 18.3647C89.8503 18.3647 88.0968 19.5549 87.3637 21.4571H87.1723V18.5772H82.8578V34.8999H87.3849V25.4633ZM108.955 35.2188C113.003 35.2188 115.713 33.2527 116.351 30.2241L112.174 29.9478C111.717 31.1912 110.538 31.8394 109.04 31.8394C106.776 31.8394 105.341 30.341 105.341 27.9075V27.8969H116.457V26.6535C116.457 21.1064 113.099 18.3647 108.784 18.3647C103.981 18.3647 100.868 21.7759 100.868 26.813C100.868 31.9882 103.939 35.2188 108.955 35.2188ZM105.341 25.0914C105.427 23.2317 106.85 21.744 108.859 21.744C110.814 21.744 112.174 23.1467 112.196 25.0914H105.341ZM124.13 35.2082C126.542 35.2082 128.104 34.1561 128.901 32.6364H129.029V34.8999H133.322V23.8906C133.322 20.0012 129.996 18.3647 126.467 18.3647C122.451 18.3647 119.911 20.235 119.284 23.2105L123.471 23.5505C123.779 22.4666 124.746 21.6696 126.372 21.6696C127.934 21.6696 128.784 22.4347 128.795 23.8056C128.805 24.8789 127.679 25.0383 124.842 25.3146C121.611 25.6121 118.71 26.6961 118.71 30.341C118.71 33.5716 121.016 35.2082 124.13 35.2082ZM125.426 32.0838C124.034 32.0838 123.035 31.4356 123.035 30.1922C123.035 28.9171 124.087 28.29 125.681 28.0669C126.669 27.9288 128.285 27.695 128.827 27.3337V29.0659C128.827 30.7768 127.413 32.0838 125.426 32.0838ZM136.834 34.8999H141.361V25.6653C141.371 23.6674 142.817 22.2966 144.645 22.2966C145.261 22.2966 145.76 22.4666 146.185 22.6791L147.546 18.9385C146.951 18.5772 146.185 18.3434 145.314 18.3434C143.476 18.3434 141.988 19.4061 141.393 21.4252H141.223V18.5772H136.834V34.8999Z" fill="#1D2939"/>
</svg>
