<svg width="143" height="49" viewBox="0 0 143 49" fill="none" xmlns="http://www.w3.org/2000/svg">
<path d="M53.2123 13.2716H45.3371C44.7982 13.2716 44.3399 13.6631 44.2559 14.1951L41.0708 34.3892C41.0074 34.7877 41.316 35.1469 41.7202 35.1469H45.4799C46.0188 35.1469 46.4771 34.7554 46.5612 34.2223L47.4202 28.7756C47.5031 28.2425 47.9626 27.8509 48.5003 27.8509H50.9934C56.1809 27.8509 59.1749 25.3406 59.9568 20.3661C60.3091 18.1897 59.9717 16.4797 58.9526 15.2822C57.8334 13.9671 55.8482 13.2716 53.2123 13.2716ZM54.1209 20.6471C53.6902 23.4729 51.5311 23.4729 49.4434 23.4729H48.2551L49.0888 18.1955C49.1383 17.8765 49.4146 17.6416 49.7371 17.6416H50.2817C51.7039 17.6416 53.0454 17.6416 53.7386 18.4523C54.152 18.9359 54.2786 19.6545 54.1209 20.6471Z" fill="#1D2939"/>
<path d="M76.7529 20.5561H72.9817C72.6605 20.5561 72.3829 20.791 72.3334 21.11L72.1665 22.1647L71.9028 21.7824C71.0863 20.5975 69.2658 20.2014 67.4487 20.2014C63.2814 20.2014 59.722 23.3577 59.0288 27.7853C58.6684 29.9939 59.1808 32.1058 60.4337 33.5786C61.5829 34.9327 63.2273 35.497 65.1837 35.497C68.5415 35.497 70.4035 33.3379 70.4035 33.3379L70.2354 34.3858C70.172 34.7865 70.4806 35.1458 70.8825 35.1458H74.2795C74.8195 35.1458 75.2756 34.7543 75.3608 34.2211L77.3989 21.3138C77.4634 20.9165 77.156 20.5561 76.7529 20.5561ZM71.4963 27.8958C71.1324 30.0503 69.4224 31.4966 67.2414 31.4966C66.1463 31.4966 65.2712 31.1454 64.7093 30.4798C64.1519 29.8189 63.94 28.8781 64.1174 27.8302C64.4571 25.6941 66.1959 24.2006 68.3434 24.2006C69.4143 24.2006 70.2849 24.5564 70.8583 25.2278C71.4329 25.906 71.6609 26.8526 71.4963 27.8958Z" fill="#1D2939"/>
<path d="M96.8376 20.556H93.048C92.6864 20.556 92.3467 20.7357 92.1417 21.0362L86.915 28.7352L84.6995 21.3368C84.5602 20.8738 84.133 20.556 83.6493 20.556H79.9253C79.4728 20.556 79.1584 20.9982 79.3023 21.4243L83.4766 33.6741L79.5522 39.214C79.2436 39.6505 79.5545 40.2504 80.0877 40.2504H83.8727C84.232 40.2504 84.5682 40.0754 84.772 39.7806L97.3765 21.5866C97.6782 21.1514 97.3685 20.556 96.8376 20.556Z" fill="#1D2939"/>
<path d="M109.384 13.2716H101.508C100.97 13.2716 100.512 13.6631 100.428 14.1951L97.2426 34.3892C97.1793 34.7877 97.4879 35.1469 97.8898 35.1469H101.932C102.307 35.1469 102.628 34.8729 102.687 34.4998L103.591 28.7756C103.674 28.2425 104.133 27.8509 104.671 27.8509H107.163C112.352 27.8509 115.344 25.3406 116.127 20.3661C116.481 18.1897 116.141 16.4797 115.122 15.2822C114.004 13.9671 112.02 13.2716 109.384 13.2716ZM110.293 20.6471C109.863 23.4729 107.704 23.4729 105.615 23.4729H104.428L105.263 18.1955C105.312 17.8765 105.587 17.6416 105.91 17.6416H106.455C107.876 17.6416 109.218 17.6416 109.912 18.4523C110.325 18.9359 110.451 19.6545 110.293 20.6471Z" fill="#1D2939"/>
<path d="M132.924 20.5561H129.155C128.831 20.5561 128.556 20.791 128.507 21.11L128.341 22.1647L128.076 21.7824C127.259 20.5975 125.44 20.2014 123.623 20.2014C119.455 20.2014 115.897 23.3577 115.204 27.7853C114.845 29.9939 115.355 32.1058 116.608 33.5786C117.759 34.9327 119.401 35.497 121.358 35.497C124.716 35.497 126.578 33.3379 126.578 33.3379L126.409 34.3858C126.346 34.7865 126.655 35.1458 127.059 35.1458H130.455C130.992 35.1458 131.451 34.7543 131.535 34.2211L133.574 21.3138C133.636 20.9165 133.328 20.5561 132.924 20.5561ZM127.667 27.8958C127.305 30.0503 125.593 31.4966 123.412 31.4966C122.319 31.4966 121.442 31.1454 120.88 30.4798C120.323 29.8189 120.113 28.8781 120.288 27.8302C120.63 25.6941 122.366 24.2006 124.514 24.2006C125.585 24.2006 126.456 24.5564 127.029 25.2278C127.606 25.906 127.834 26.8526 127.667 27.8958Z" fill="#1D2939"/>
<path d="M137.369 13.8254L134.137 34.3892C134.074 34.7876 134.382 35.1469 134.784 35.1469H138.034C138.574 35.1469 139.032 34.7554 139.115 34.2222L142.303 14.0292C142.366 13.6308 142.057 13.2704 141.655 13.2704H138.017C137.695 13.2715 137.419 13.5064 137.369 13.8254Z" fill="#1D2939"/>
<path d="M8.36781 39.0713L8.97005 35.246L7.62853 35.2149H1.22266L5.67441 6.98781C5.68823 6.90259 5.73314 6.82314 5.79878 6.76671C5.86441 6.71029 5.94847 6.6792 6.03599 6.6792H16.8372C20.423 6.6792 22.8976 7.42538 24.1896 8.89817C24.7953 9.58908 25.1811 10.3111 25.3676 11.1056C25.5634 11.9393 25.5668 12.9354 25.3757 14.1502L25.3619 14.2389V15.0173L25.9676 15.3605C26.4777 15.6311 26.883 15.9408 27.1939 16.2955C27.7121 16.8862 28.0472 17.637 28.1888 18.5271C28.3351 19.4426 28.2867 20.5319 28.0472 21.7652C27.7708 23.1839 27.324 24.4194 26.7207 25.4305C26.1656 26.362 25.4586 27.1347 24.6191 27.7335C23.8177 28.3024 22.8654 28.7342 21.7887 29.0105C20.7454 29.2823 19.5559 29.4193 18.2513 29.4193H17.4107C16.8096 29.4193 16.2257 29.6358 15.7674 30.0239C15.308 30.42 15.004 30.9612 14.9107 31.5531L14.8474 31.8974L13.7834 38.6395L13.735 38.8871C13.7224 38.9654 13.7005 39.0045 13.6682 39.031C13.6394 39.0552 13.598 39.0713 13.5577 39.0713H8.36781Z" fill="#1D2939"/>
<path d="M26.5392 14.3286C26.5069 14.5347 26.4701 14.7455 26.4286 14.9619C25.0042 22.2752 20.131 24.8016 13.907 24.8016H10.7381C9.97692 24.8016 9.33553 25.3544 9.21692 26.1052L7.59443 36.3951L7.13498 39.3119C7.05783 39.8047 7.43783 40.2492 7.93528 40.2492H13.5558C14.2214 40.2492 14.7868 39.7656 14.8916 39.1092L14.9469 38.8236L16.0051 32.108L16.073 31.7395C16.1767 31.0809 16.7432 30.5972 17.4088 30.5972H18.2494C23.6949 30.5972 27.9578 28.3863 29.2038 21.9885C29.7243 19.3158 29.4548 17.0842 28.0776 15.5147C27.6607 15.0414 27.1437 14.6487 26.5392 14.3286Z" fill="#1D2939"/>
<path d="M25.0509 13.7345C24.8333 13.6712 24.6087 13.6136 24.3784 13.5618C24.147 13.5111 23.9098 13.4662 23.6657 13.4271C22.8112 13.2889 21.875 13.2233 20.8721 13.2233H12.4061C12.1977 13.2233 11.9997 13.2705 11.8223 13.3557C11.432 13.5434 11.1418 13.913 11.0715 14.3656L9.27057 25.7725L9.21875 26.1053C9.33736 25.3545 9.97875 24.8018 10.7399 24.8018H13.9089C20.1328 24.8018 25.006 22.2742 26.4304 14.9621C26.473 14.7456 26.5087 14.5348 26.541 14.3287C26.1806 14.1376 25.7902 13.9741 25.3699 13.8347C25.2663 13.8002 25.1592 13.7668 25.0509 13.7345Z" fill="#1D2939"/>
<path d="M11.0707 14.3655C11.1409 13.913 11.4311 13.5433 11.8214 13.3568C11.9999 13.2716 12.1968 13.2244 12.4053 13.2244H20.8712C21.8742 13.2244 22.8103 13.29 23.6648 13.4282C23.9089 13.4673 24.1461 13.5122 24.3776 13.5629C24.6079 13.6147 24.8324 13.6723 25.05 13.7356C25.1583 13.7679 25.2654 13.8013 25.3702 13.8347C25.7905 13.974 26.1808 14.1387 26.5413 14.3287C26.965 11.6261 26.5378 9.78594 25.0765 8.1197C23.4656 6.28533 20.558 5.5 16.8374 5.5H6.03623C5.27623 5.5 4.62793 6.05273 4.51047 6.80467L0.0115023 35.3219C-0.0771644 35.8862 0.358108 36.3952 0.926957 36.3952H7.59538L9.26968 25.7724L11.0707 14.3655Z" fill="#1D2939"/>
</svg>
