<svg width="98" height="49" viewBox="0 0 98 49" fill="none" xmlns="http://www.w3.org/2000/svg">
<g id="Company logo">
<path id="Vector" fill-rule="evenodd" clip-rule="evenodd" d="M79.7073 21.0972C80.0815 21.7429 80.2039 22.4774 80.2443 23.3032L80.2975 24.4039V32.1007L80.3517 33.2025C80.4603 35.002 81.7874 36.3325 83.6007 36.4457L84.6968 36.5V24.4039L84.7511 23.3032C84.7961 22.4867 84.9174 21.7382 85.2974 21.088C85.6846 20.421 86.2404 19.8677 86.9091 19.4835C87.5778 19.0993 88.3358 18.8978 89.107 18.8992C89.8782 18.9006 90.6355 19.1049 91.3028 19.4915C91.97 19.8781 92.5239 20.4335 92.9086 21.1018C93.2829 21.7475 93.3995 22.4959 93.4446 23.3032L93.4988 24.4005V32.1007L93.5531 33.2025C93.6663 35.0112 94.983 36.3418 96.8021 36.4457L97.8981 36.5V23.3032C97.8981 20.9697 96.9714 18.7317 95.3216 17.0813C93.6719 15.4309 91.4342 14.5032 89.1007 14.5023C87.8517 14.501 86.6168 14.7662 85.4786 15.2803C84.3403 15.7944 83.3248 16.5454 82.5 17.4833C81.6748 16.5458 80.6593 15.7949 79.5211 15.2807C78.3829 14.7665 77.1482 14.5007 75.8993 14.5012C74.0721 14.5012 72.3766 15.0555 70.9722 16.013C70.1152 15.0567 68.1979 14.5012 67.0972 14.5012V36.5L68.1979 36.4457C70.039 36.3244 71.3695 35.0297 71.4411 33.2025L71.5 32.1007V24.4039L71.5543 23.3032C71.6005 22.4728 71.716 21.7429 72.0913 21.0926C72.4789 20.4261 73.0345 19.8728 73.7027 19.4882C74.3709 19.1035 75.1283 18.9009 75.8993 18.9005C76.6709 18.9006 77.4289 19.1037 78.0973 19.4893C78.7656 19.8748 79.3209 20.4294 79.7073 21.0972ZM4.39931 36.4469L5.5 36.5H21.9988L21.9446 35.4028C21.7956 33.5941 20.5147 32.2728 18.7002 32.155L17.5995 32.1007H7.70139L20.8982 18.8993L20.8439 17.8032C20.7584 15.9761 19.4232 14.6559 17.5995 14.5554L16.4988 14.5058L0 14.5012L0.0542839 15.6019C0.198656 17.3932 1.498 18.7422 3.29746 18.8462L4.39931 18.9005H14.2975L1.10069 32.1018L1.15498 33.2025C1.26354 35.0159 2.57213 36.3291 4.39931 36.4457V36.4469ZM62.7788 17.7212C63.8004 18.7426 64.6107 19.9552 65.1636 21.2898C65.7165 22.6244 66.0011 24.0548 66.0011 25.4994C66.0011 26.944 65.7165 28.3744 65.1636 29.709C64.6107 31.0436 63.8004 32.2562 62.7788 33.2776C60.7148 35.3399 57.9165 36.4983 54.9988 36.4983C52.0812 36.4983 49.2829 35.3399 47.2189 33.2776C42.9236 28.9823 42.9236 22.0166 47.2189 17.7212C48.2396 16.7002 49.4513 15.8902 50.785 15.3375C52.1187 14.7848 53.5482 14.5002 54.9919 14.5C56.4379 14.499 57.87 14.7831 59.2061 15.336C60.5423 15.8889 61.7563 16.6999 62.7788 17.7224V17.7212ZM59.6661 20.8362C60.9033 22.0744 61.5983 23.7531 61.5983 25.5035C61.5983 27.2538 60.9033 28.9326 59.6661 30.1707C58.4279 31.408 56.7492 32.1029 54.9988 32.1029C53.2485 32.1029 51.5697 31.408 50.3316 30.1707C49.0944 28.9326 48.3994 27.2538 48.3994 25.5035C48.3994 23.7531 49.0944 22.0744 50.3316 20.8362C51.5697 19.599 53.2485 18.904 54.9988 18.904C56.7492 18.904 58.4279 19.599 59.6661 20.8362ZM31.9062 14.5C33.35 14.5004 34.7795 14.7851 36.1133 15.3381C37.4469 15.891 38.6587 16.7012 39.6792 17.7224C43.9757 22.0166 43.9757 28.9834 39.6792 33.2776C37.6153 35.3399 34.817 36.4983 31.8993 36.4983C28.9816 36.4983 26.1833 35.3399 24.1194 33.2776C19.824 28.9823 19.824 22.0166 24.1194 17.7212C25.14 16.7002 26.3518 15.8902 27.6855 15.3375C29.0192 14.7848 30.4487 14.5002 31.8924 14.5H31.9062ZM36.5666 20.8339C37.8041 22.0721 38.4994 23.7511 38.4994 25.5017C38.4994 27.2524 37.8041 28.9314 36.5666 30.1696C35.3284 31.4068 33.6497 32.1018 31.8993 32.1018C30.1489 32.1018 28.4702 31.4068 27.232 30.1696C25.9948 28.9314 25.2998 27.2527 25.2998 25.5023C25.2998 23.752 25.9948 22.0732 27.232 20.835C28.4702 19.5978 30.1489 18.9028 31.8993 18.9028C33.6497 18.9028 35.3284 19.5978 36.5666 20.835V20.8339Z" fill="#1D2939"/>
</g>
</svg>
